<svg xmlns="http://www.w3.org/2000/svg" viewBox="0 0 128 128" role="img" aria-label="Sloth">
  <defs>
    <linearGradient id="g" x1="0" y1="0" x2="0" y2="1">
      <stop offset="0" stop-color="#7bd389"/>
      <stop offset="1" stop-color="#4fbf6d"/>
    </linearGradient>
  </defs>
  <rect width="128" height="128" rx="28" fill="rgba(255,255,255,0)"/>
  <g transform="translate(8,8)">
    <path d="M56 6c18 0 32 14 32 32v10c0 22-16 40-36 40S16 70 16 48V38C16 20 30 6 48 6h8z" fill="url(#g)"/>
    <path d="M40 42c0-12 10-22 22-22s22 10 22 22c0 16-10 34-22 34S40 58 40 42z" fill="rgba(11,15,20,.25)"/>
    <circle cx="54" cy="46" r="6" fill="#0b0f14"/>
    <circle cx="70" cy="46" r="6" fill="#0b0f14"/>
    <path d="M52 60c6 6 18 6 24 0" stroke="#0b0f14" stroke-width="5" stroke-linecap="round" fill="none"/>
  </g>
</svg>
